<?xml version="1.0" encoding="UTF-8"?>
<svg width="1024" height="1024" viewBox="0 0 1024 1024" fill="none" xmlns="http://www.w3.org/2000/svg">
  <!-- Definitions for gradients and effects -->
  <defs>
    <!-- Background gradient -->
    <linearGradient id="bgGradient" x1="0" y1="0" x2="1024" y2="1024">
      <stop offset="0%" stop-color="#0A84FF"/>
      <stop offset="100%" stop-color="#0066CC"/>
    </linearGradient>
    
    <!-- Scanner line gradient -->
    <linearGradient id="scannerGradient" x1="0" y1="0" x2="900" y2="0">
      <stop offset="0%" stop-color="#FF3B30" stop-opacity="0"/>
      <stop offset="50%" stop-color="#FF3B30" stop-opacity="0.8"/>
      <stop offset="100%" stop-color="#FF3B30" stop-opacity="0"/>
    </linearGradient>
    
    <!-- Glow effect -->
    <filter id="glow" x="-20%" y="-20%" width="140%" height="140%">
      <feGaussianBlur in="SourceGraphic" stdDeviation="4"/>
    </filter>
  </defs>

  <!-- Background -->
  <rect width="1024" height="1024" fill="#F5F5F7"/>
  
  <!-- White container -->
  <rect x="112" y="112" width="800" height="800" fill="white"/>
  
  <!-- QR Code -->
  <g transform="translate(162, 162)">
    <!-- Position detection patterns -->
    <g>
      <!-- Top-left -->
      <rect x="0" y="0" width="140" height="140" fill="black"/>
      <rect x="20" y="20" width="100" height="100" fill="white"/>
      <rect x="40" y="40" width="60" height="60" fill="black"/>
      
      <!-- Top-right -->
      <rect x="560" y="0" width="140" height="140" fill="black"/>
      <rect x="580" y="20" width="100" height="100" fill="white"/>
      <rect x="600" y="40" width="60" height="60" fill="black"/>
      
      <!-- Bottom-left -->
      <rect x="0" y="560" width="140" height="140" fill="black"/>
      <rect x="20" y="580" width="100" height="100" fill="white"/>
      <rect x="40" y="600" width="60" height="60" fill="black"/>
    </g>
    
    <!-- QR Code data pattern (simplified) -->
    <g>
      <rect x="180" y="0" width="50" height="50" fill="black"/>
      <rect x="280" y="0" width="50" height="50" fill="black"/>
      <rect x="380" y="0" width="50" height="50" fill="black"/>
      <rect x="480" y="0" width="50" height="50" fill="black"/>
      
      <rect x="0" y="180" width="50" height="50" fill="black"/>
      <rect x="100" y="180" width="50" height="50" fill="black"/>
      <rect x="180" y="180" width="50" height="50" fill="black"/>
      <rect x="380" y="180" width="50" height="50" fill="black"/>
      
      <rect x="180" y="280" width="50" height="50" fill="black"/>
      <rect x="280" y="280" width="50" height="50" fill="black"/>
      <rect x="480" y="280" width="50" height="50" fill="black"/>
      
      <rect x="0" y="380" width="50" height="50" fill="black"/>
      <rect x="180" y="380" width="50" height="50" fill="black"/>
      <rect x="380" y="380" width="50" height="50" fill="black"/>
      <rect x="580" y="380" width="50" height="50" fill="black"/>
      
      <rect x="100" y="480" width="50" height="50" fill="black"/>
      <rect x="280" y="480" width="50" height="50" fill="black"/>
      <rect x="480" y="480" width="50" height="50" fill="black"/>
    </g>
  </g>
  
  <!-- Scanner Line with glow -->
  <g filter="url(#glow)">
    <rect x="132" y="487" width="760" height="50" fill="url(#scannerGradient)"/>
  </g>
</svg> 