<?xml version="1.0" encoding="UTF-8"?>
<svg width="1024" height="1024" viewBox="0 0 1024 1024" fill="none" xmlns="http://www.w3.org/2000/svg">
  <defs>
    <!-- Scanner line gradient -->
    <linearGradient id="scannerGradient" x1="0" y1="0" x2="800" y2="0">
      <stop offset="0%" stop-color="#FF3B30" stop-opacity="0"/>
      <stop offset="50%" stop-color="#FF3B30" stop-opacity="0.8"/>
      <stop offset="100%" stop-color="#FF3B30" stop-opacity="0"/>
    </linearGradient>
    
    <!-- Glow effect -->
    <filter id="glow" x="-20%" y="-20%" width="140%" height="140%">
      <feGaussianBlur in="SourceGraphic" stdDeviation="4"/>
    </filter>

    <!-- Inner shadow for container -->
    <filter id="innerShadow" x="-20%" y="-20%" width="140%" height="140%">
      <feGaussianBlur in="SourceAlpha" stdDeviation="4"/>
      <feOffset dx="0" dy="2"/>
      <feComposite in2="SourceAlpha" operator="arithmetic" k2="-1" k3="1"/>
      <feColorMatrix type="matrix" values="0 0 0 0 0   0 0 0 0 0   0 0 0 0 0  0 0 0 0.25 0"/>
    </filter>
  </defs>

  <!-- Background with rounded corners -->
  <rect width="1024" height="1024" rx="224" fill="#F5F5F7"/>
  
  <!-- Container with inner shadow -->
  <rect x="162" y="162" width="700" height="700" rx="40" fill="white" filter="url(#innerShadow)"/>
  
  <!-- QR Code -->
  <g transform="translate(212, 212)">
    <!-- Position detection patterns -->
    <g>
      <!-- Top-left -->
      <rect x="0" y="0" width="120" height="120" fill="black"/>
      <rect x="20" y="20" width="80" height="80" fill="white"/>
      <rect x="40" y="40" width="40" height="40" fill="black"/>
      
      <!-- Top-right -->
      <rect x="480" y="0" width="120" height="120" fill="black"/>
      <rect x="500" y="20" width="80" height="80" fill="white"/>
      <rect x="520" y="40" width="40" height="40" fill="black"/>
      
      <!-- Bottom-left -->
      <rect x="0" y="480" width="120" height="120" fill="black"/>
      <rect x="20" y="500" width="80" height="80" fill="white"/>
      <rect x="40" y="520" width="40" height="40" fill="black"/>
    </g>
    
    <!-- QR Code data pattern (simplified) -->
    <g>
      <rect x="160" y="0" width="40" height="40" fill="black"/>
      <rect x="240" y="0" width="40" height="40" fill="black"/>
      <rect x="320" y="0" width="40" height="40" fill="black"/>
      <rect x="400" y="0" width="40" height="40" fill="black"/>
      
      <rect x="0" y="160" width="40" height="40" fill="black"/>
      <rect x="80" y="160" width="40" height="40" fill="black"/>
      <rect x="160" y="160" width="40" height="40" fill="black"/>
      <rect x="320" y="160" width="40" height="40" fill="black"/>
      
      <rect x="160" y="240" width="40" height="40" fill="black"/>
      <rect x="240" y="240" width="40" height="40" fill="black"/>
      <rect x="400" y="240" width="40" height="40" fill="black"/>
      
      <rect x="0" y="320" width="40" height="40" fill="black"/>
      <rect x="160" y="320" width="40" height="40" fill="black"/>
      <rect x="320" y="320" width="40" height="40" fill="black"/>
      <rect x="480" y="320" width="40" height="40" fill="black"/>
      
      <rect x="80" y="400" width="40" height="40" fill="black"/>
      <rect x="240" y="400" width="40" height="40" fill="black"/>
      <rect x="400" y="400" width="40" height="40" fill="black"/>
    </g>
  </g>
  
  <!-- Scanner Line with glow -->
  <g filter="url(#glow)">
    <rect x="182" y="487" width="660" height="50" fill="url(#scannerGradient)"/>
  </g>
</svg> 